<svg width="96" height="95" viewBox="0 0 96 95" fill="none" xmlns="http://www.w3.org/2000/svg">
<path d="M42.2584 10.0221C45.5751 7.22518 50.4249 7.22518 53.7416 10.0221L80.4603 32.5533C82.4668 34.2456 83.625 36.7369 83.625 39.3619V76.2133C83.625 80.0391 80.5236 83.1404 76.6979 83.1404H62.8437C59.018 83.1404 55.9167 80.0391 55.9167 76.2133V56.3936C55.9167 55.8473 55.4737 55.404 54.9271 55.404H41.0729C40.5263 55.404 40.0833 55.8473 40.0833 56.3936V76.2133C40.0833 80.0391 36.982 83.1404 33.1562 83.1404H19.3021C15.4764 83.1404 12.375 80.0391 12.375 76.2133V39.3619C12.375 36.7369 13.533 34.2456 15.5398 32.5533L42.2584 10.0221ZM49.9139 14.5611C48.8083 13.6288 47.1917 13.6288 46.0861 14.5611L19.3674 37.0924C18.6985 37.6565 18.3125 38.4869 18.3125 39.3619V76.2133C18.3125 76.76 18.7556 77.2029 19.3021 77.2029H33.1562C33.7028 77.2029 34.1458 76.76 34.1458 76.2133V56.3936C34.1458 52.5679 37.2472 49.4665 41.0729 49.4665H54.9271C58.7528 49.4665 61.8542 52.5679 61.8542 56.3936V76.2133C61.8542 76.76 62.2971 77.2029 62.8437 77.2029H76.6979C77.2446 77.2029 77.6875 76.76 77.6875 76.2133V39.3619C77.6875 38.4869 77.3016 37.6565 76.6326 37.0924L49.9139 14.5611Z" fill="url(#paint0_linear_66_2157)"/>
<defs>
<linearGradient id="paint0_linear_66_2157" x1="48" y1="7.92441" x2="48" y2="83.1404" gradientUnits="userSpaceOnUse">
<stop stop-color="#5181E3"/>
<stop offset="1" stop-color="#3FB497"/>
</linearGradient>
</defs>
</svg>
