<svg width="333" height="314" viewBox="0 0 333 314" fill="none" xmlns="http://www.w3.org/2000/svg">
<g filter="url(#filter0_f_715_17414)">
<path d="M60 253.801V232.395C60 232.395 113.25 210.99 166.5 210.99C219.75 210.99 273 232.395 273 232.395V253.801H60ZM159.045 115.736C146.265 73.9957 81.3 83.6281 81.3 83.6281C81.3 83.6281 83.43 167.109 144.135 154.266C139.875 123.228 123.9 114.666 123.9 114.666C153.72 114.666 155.85 151.055 155.85 151.055V200.287C159.045 200.287 163.305 200.287 166.5 200.287C169.695 200.287 173.955 200.287 177.15 200.287V155.336C177.15 155.336 177.15 113.596 209.1 102.893C209.1 102.893 187.8 135.001 187.8 156.406C262.35 163.898 262.35 61.1525 262.35 61.1525C262.35 61.1525 167.565 50.4498 159.045 115.736Z" fill="url(#paint0_linear_715_17414)"/>
</g>
<path d="M60 253.801V232.395C60 232.395 113.25 210.99 166.5 210.99C219.75 210.99 273 232.395 273 232.395V253.801H60ZM159.045 115.736C146.265 73.9957 81.3 83.6281 81.3 83.6281C81.3 83.6281 83.43 167.109 144.135 154.266C139.875 123.228 123.9 114.666 123.9 114.666C153.72 114.666 155.85 151.055 155.85 151.055V200.287C159.045 200.287 163.305 200.287 166.5 200.287C169.695 200.287 173.955 200.287 177.15 200.287V155.336C177.15 155.336 177.15 113.596 209.1 102.893C209.1 102.893 187.8 135.001 187.8 156.406C262.35 163.898 262.35 61.1525 262.35 61.1525C262.35 61.1525 167.565 50.4498 159.045 115.736Z" fill="#EEECEC"/>
<defs>
<filter id="filter0_f_715_17414" x="0" y="0.5" width="333" height="313.301" filterUnits="userSpaceOnUse" color-interpolation-filters="sRGB">
<feFlood flood-opacity="0" result="BackgroundImageFix"/>
<feBlend mode="normal" in="SourceGraphic" in2="BackgroundImageFix" result="shape"/>
<feGaussianBlur stdDeviation="30" result="effect1_foregroundBlur_715_17414"/>
</filter>
<linearGradient id="paint0_linear_715_17414" x1="167.234" y1="28.4528" x2="178.179" y2="277.719" gradientUnits="userSpaceOnUse">
<stop stop-color="#04E4FF"/>
<stop offset="1" stop-color="#FF28DC"/>
</linearGradient>
</defs>
</svg>
