<svg width="186" height="170" viewBox="0 0 186 170" fill="none" xmlns="http://www.w3.org/2000/svg">
<path d="M79.9583 114.75C79.9583 117.895 79.1167 120.7 77.6017 123.25C74.74 118.235 69.3533 114.75 63.125 114.75C56.8967 114.75 51.51 118.235 48.6483 123.25C47.2175 120.7 46.2917 117.895 46.2917 114.75C46.2917 105.4 53.8667 97.75 63.125 97.75C72.3833 97.75 79.9583 105.4 79.9583 114.75ZM185.167 110.5V136C185.167 140.675 181.379 144.5 176.75 144.5H168.333V153C168.333 162.435 160.842 170 151.5 170H33.6667C24.4083 170 16.8333 162.435 16.8333 153V144.5H8.41667C3.7875 144.5 0 140.675 0 136V110.5C0 105.825 3.7875 102 8.41667 102H16.8333C16.8333 69.105 43.1775 42.5 75.75 42.5H84.1667V31.705C79.1167 28.815 75.75 23.29 75.75 17C75.75 7.65 83.325 0 92.5833 0C101.842 0 109.417 7.65 109.417 17C109.417 23.29 106.05 28.815 101 31.705V42.5H109.417C141.989 42.5 168.333 69.105 168.333 102H176.75C181.379 102 185.167 105.825 185.167 110.5ZM168.333 119H151.5V102C151.5 78.54 132.647 59.5 109.417 59.5H75.75C52.52 59.5 33.6667 78.54 33.6667 102V119H16.8333V127.5H33.6667V153H151.5V127.5H168.333V119ZM122.042 97.75C112.783 97.75 105.208 105.4 105.208 114.75C105.208 117.895 106.134 120.7 107.565 123.25C110.427 118.235 115.813 114.75 122.042 114.75C128.27 114.75 133.657 118.235 136.518 123.25C138.033 120.7 138.875 117.895 138.875 114.75C138.875 105.4 131.384 97.75 122.042 97.75Z" fill="#EEECEC"/>
</svg>
