<svg width="55" height="44" viewBox="0 0 55 44" fill="none" xmlns="http://www.w3.org/2000/svg">
<path d="M20.834 0.666504C9.79398 0.666504 0.833984 7.83984 0.833984 16.6665C0.833984 21.7065 3.71398 26.1598 8.24732 29.0932L6.16732 35.3332L12.834 31.3332C15.2073 32.1598 17.8207 32.6665 20.594 32.6665C19.9007 30.9865 19.5007 29.1998 19.5007 27.3332C19.5007 18.5065 27.8473 11.3332 38.1673 11.3332C38.674 11.3332 39.1807 11.3332 39.6607 11.4132C36.9407 5.17317 29.5807 0.666504 20.834 0.666504ZM12.834 7.33317C13.5412 7.33317 14.2195 7.61412 14.7196 8.11422C15.2197 8.61432 15.5007 9.29259 15.5007 9.99984C15.5007 10.7071 15.2197 11.3854 14.7196 11.8855C14.2195 12.3856 13.5412 12.6665 12.834 12.6665C12.1267 12.6665 11.4485 12.3856 10.9484 11.8855C10.4483 11.3854 10.1673 10.7071 10.1673 9.99984C10.1673 9.29259 10.4483 8.61432 10.9484 8.11422C11.4485 7.61412 12.1267 7.33317 12.834 7.33317ZM26.1673 7.33317C26.8746 7.33317 27.5528 7.61412 28.0529 8.11422C28.553 8.61432 28.834 9.29259 28.834 9.99984C28.834 10.7071 28.553 11.3854 28.0529 11.8855C27.5528 12.3856 26.8746 12.6665 26.1673 12.6665C25.4601 12.6665 24.7818 12.3856 24.2817 11.8855C23.7816 11.3854 23.5007 10.7071 23.5007 9.99984C23.5007 9.29259 23.7816 8.61432 24.2817 8.11422C24.7818 7.61412 25.4601 7.33317 26.1673 7.33317ZM38.1673 13.9998C29.3407 13.9998 22.1673 19.9732 22.1673 27.3332C22.1673 34.6932 29.3407 40.6665 38.1673 40.6665C39.954 40.6665 41.6607 40.4532 43.2607 39.9998L48.834 43.3332L47.1806 38.3465C51.3673 35.9198 54.1673 31.8932 54.1673 27.3332C54.1673 19.9732 46.994 13.9998 38.1673 13.9998ZM32.834 20.6665C33.5412 20.6665 34.2195 20.9475 34.7196 21.4476C35.2197 21.9477 35.5007 22.6259 35.5007 23.3332C35.5007 24.0404 35.2197 24.7187 34.7196 25.2188C34.2195 25.7189 33.5412 25.9998 32.834 25.9998C32.1267 25.9998 31.4485 25.7189 30.9484 25.2188C30.4483 24.7187 30.1673 24.0404 30.1673 23.3332C30.1673 22.6259 30.4483 21.9477 30.9484 21.4476C31.4485 20.9475 32.1267 20.6665 32.834 20.6665ZM43.5007 20.6665C44.2079 20.6665 44.8862 20.9475 45.3863 21.4476C45.8864 21.9477 46.1673 22.6259 46.1673 23.3332C46.1673 24.0404 45.8864 24.7187 45.3863 25.2188C44.8862 25.7189 44.2079 25.9998 43.5007 25.9998C42.7934 25.9998 42.1151 25.7189 41.615 25.2188C41.1149 24.7187 40.834 24.0404 40.834 23.3332C40.834 22.6259 41.1149 21.9477 41.615 21.4476C42.1151 20.9475 42.7934 20.6665 43.5007 20.6665Z" fill="white"/>
</svg>
