<svg width="55" height="44" viewBox="0 0 55 44" fill="none" xmlns="http://www.w3.org/2000/svg">
<path d="M20.833 0.666992C9.79301 0.666992 0.833008 7.84033 0.833008 16.667C0.833008 21.707 3.71301 26.1603 8.24634 29.0937L6.16634 35.3337L12.833 31.3337C15.2063 32.1603 17.8197 32.667 20.593 32.667C19.8997 30.987 19.4997 29.2003 19.4997 27.3337C19.4997 18.507 27.8463 11.3337 38.1663 11.3337C38.673 11.3337 39.1797 11.3337 39.6597 11.4137C36.9397 5.17366 29.5797 0.666992 20.833 0.666992ZM12.833 7.33366C13.5403 7.33366 14.2185 7.61461 14.7186 8.11471C15.2187 8.6148 15.4997 9.29308 15.4997 10.0003C15.4997 10.7076 15.2187 11.3858 14.7186 11.8859C14.2185 12.386 13.5403 12.667 12.833 12.667C12.1258 12.667 11.4475 12.386 10.9474 11.8859C10.4473 11.3858 10.1663 10.7076 10.1663 10.0003C10.1663 9.29308 10.4473 8.6148 10.9474 8.11471C11.4475 7.61461 12.1258 7.33366 12.833 7.33366ZM26.1663 7.33366C26.8736 7.33366 27.5519 7.61461 28.052 8.11471C28.5521 8.6148 28.833 9.29308 28.833 10.0003C28.833 10.7076 28.5521 11.3858 28.052 11.8859C27.5519 12.386 26.8736 12.667 26.1663 12.667C25.4591 12.667 24.7808 12.386 24.2807 11.8859C23.7806 11.3858 23.4997 10.7076 23.4997 10.0003C23.4997 9.29308 23.7806 8.6148 24.2807 8.11471C24.7808 7.61461 25.4591 7.33366 26.1663 7.33366ZM38.1663 14.0003C29.3397 14.0003 22.1663 19.9737 22.1663 27.3337C22.1663 34.6937 29.3397 40.667 38.1663 40.667C39.953 40.667 41.6597 40.4537 43.2597 40.0003L48.833 43.3337L47.1797 38.347C51.3663 35.9203 54.1663 31.8937 54.1663 27.3337C54.1663 19.9737 46.993 14.0003 38.1663 14.0003ZM32.833 20.667C33.5403 20.667 34.2185 20.9479 34.7186 21.448C35.2187 21.9481 35.4997 22.6264 35.4997 23.3337C35.4997 24.0409 35.2187 24.7192 34.7186 25.2193C34.2185 25.7194 33.5403 26.0003 32.833 26.0003C32.1258 26.0003 31.4475 25.7194 30.9474 25.2193C30.4473 24.7192 30.1663 24.0409 30.1663 23.3337C30.1663 22.6264 30.4473 21.9481 30.9474 21.448C31.4475 20.9479 32.1258 20.667 32.833 20.667ZM43.4997 20.667C44.2069 20.667 44.8852 20.9479 45.3853 21.448C45.8854 21.9481 46.1663 22.6264 46.1663 23.3337C46.1663 24.0409 45.8854 24.7192 45.3853 25.2193C44.8852 25.7194 44.2069 26.0003 43.4997 26.0003C42.7924 26.0003 42.1142 25.7194 41.6141 25.2193C41.114 24.7192 40.833 24.0409 40.833 23.3337C40.833 22.6264 41.114 21.9481 41.6141 21.448C42.1142 20.9479 42.7924 20.667 43.4997 20.667Z" fill="white"/>
</svg>
