<svg width="194" height="178" viewBox="0 0 194 178" fill="none" xmlns="http://www.w3.org/2000/svg">
<g filter="url(#filter0_f_724_17649)">
<path d="M84.7904 118.75C84.7904 121.895 83.9487 124.7 82.4337 127.25C79.572 122.235 74.1854 118.75 67.957 118.75C61.7287 118.75 56.342 122.235 53.4804 127.25C52.0495 124.7 51.1237 121.895 51.1237 118.75C51.1237 109.4 58.6987 101.75 67.957 101.75C77.2154 101.75 84.7904 109.4 84.7904 118.75ZM189.999 114.5V140C189.999 144.675 186.211 148.5 181.582 148.5H173.165V157C173.165 166.435 165.675 174 156.332 174H38.4987C29.2404 174 21.6654 166.435 21.6654 157V148.5H13.2487C8.61953 148.5 4.83203 144.675 4.83203 140V114.5C4.83203 109.825 8.61953 106 13.2487 106H21.6654C21.6654 73.105 48.0095 46.5 80.582 46.5H88.9987V35.705C83.9487 32.815 80.582 27.29 80.582 21C80.582 11.65 88.157 4 97.4154 4C106.674 4 114.249 11.65 114.249 21C114.249 27.29 110.882 32.815 105.832 35.705V46.5H114.249C146.821 46.5 173.165 73.105 173.165 106H181.582C186.211 106 189.999 109.825 189.999 114.5ZM173.165 123H156.332V106C156.332 82.54 137.479 63.5 114.249 63.5H80.582C57.352 63.5 38.4987 82.54 38.4987 106V123H21.6654V131.5H38.4987V157H156.332V131.5H173.165V123ZM126.874 101.75C117.615 101.75 110.04 109.4 110.04 118.75C110.04 121.895 110.966 124.7 112.397 127.25C115.259 122.235 120.645 118.75 126.874 118.75C133.102 118.75 138.489 122.235 141.35 127.25C142.865 124.7 143.707 121.895 143.707 118.75C143.707 109.4 136.216 101.75 126.874 101.75Z" fill="url(#paint0_linear_724_17649)"/>
</g>
<defs>
<filter id="filter0_f_724_17649" x="0.832031" y="0" width="193.168" height="178" filterUnits="userSpaceOnUse" color-interpolation-filters="sRGB">
<feFlood flood-opacity="0" result="BackgroundImageFix"/>
<feBlend mode="normal" in="SourceGraphic" in2="BackgroundImageFix" result="shape"/>
<feGaussianBlur stdDeviation="2" result="effect1_foregroundBlur_724_17649"/>
</filter>
<linearGradient id="paint0_linear_724_17649" x1="98.0539" y1="-24.1842" x2="107.791" y2="195.026" gradientUnits="userSpaceOnUse">
<stop stop-color="#04E4FF"/>
<stop offset="1" stop-color="#FF28DC"/>
</linearGradient>
</defs>
</svg>
