<svg width="55" height="53" viewBox="0 0 55 53" fill="none" xmlns="http://www.w3.org/2000/svg">
<path d="M27.5006 0.333496C23.9987 0.333496 20.5311 1.02325 17.2958 2.36338C14.0604 3.7035 11.1207 5.66775 8.64447 8.14398C3.6435 13.145 0.833984 19.9277 0.833984 27.0002C0.833984 38.7868 8.48732 48.7868 19.074 52.3335C20.4073 52.5468 20.834 51.7202 20.834 51.0002C20.834 50.3868 20.834 48.7068 20.834 46.4935C13.4473 48.0935 11.874 42.9202 11.874 42.9202C10.6473 39.8268 8.91398 39.0002 8.91398 39.0002C6.48732 37.3468 9.10065 37.4002 9.10065 37.4002C11.7673 37.5868 13.1807 40.1468 13.1807 40.1468C15.5007 44.2002 19.4207 43.0002 20.9406 42.3602C21.1806 40.6268 21.874 39.4535 22.6206 38.7868C16.7007 38.1202 10.4873 35.8268 10.4873 25.6668C10.4873 22.7068 11.5007 20.3335 13.234 18.4402C12.9673 17.7735 12.034 15.0002 13.5007 11.4002C13.5007 11.4002 15.7407 10.6802 20.834 14.1202C22.9406 13.5335 25.234 13.2402 27.5006 13.2402C29.7673 13.2402 32.0606 13.5335 34.1673 14.1202C39.2606 10.6802 41.5006 11.4002 41.5006 11.4002C42.9673 15.0002 42.034 17.7735 41.7673 18.4402C43.5006 20.3335 44.514 22.7068 44.514 25.6668C44.514 35.8535 38.274 38.0935 32.3273 38.7602C33.2873 39.5868 34.1673 41.2135 34.1673 43.6935C34.1673 47.2668 34.1673 50.1468 34.1673 51.0002C34.1673 51.7202 34.594 52.5735 35.954 52.3335C46.5406 48.7602 54.1673 38.7868 54.1673 27.0002C54.1673 23.4982 53.4776 20.0306 52.1374 16.7953C50.7973 13.5599 48.8331 10.6202 46.3568 8.14398C43.8806 5.66775 40.9409 3.7035 37.7055 2.36338C34.4702 1.02325 31.0026 0.333496 27.5006 0.333496Z" fill="white"/>
</svg>
