<svg width="55" height="53" viewBox="0 0 55 53" fill="none" xmlns="http://www.w3.org/2000/svg">
<path d="M27.4999 0.333008C23.998 0.333008 20.5304 1.02276 17.295 2.36289C14.0597 3.70301 11.12 5.66726 8.64374 8.14349C3.64277 13.1445 0.833252 19.9272 0.833252 26.9997C0.833252 38.7863 8.48659 48.7863 19.0733 52.333C20.4066 52.5463 20.8333 51.7197 20.8333 50.9997C20.8333 50.3863 20.8333 48.7063 20.8333 46.493C13.4466 48.093 11.8733 42.9197 11.8733 42.9197C10.6466 39.8263 8.91325 38.9997 8.91325 38.9997C6.48659 37.3463 9.09992 37.3997 9.09992 37.3997C11.7666 37.5863 13.1799 40.1463 13.1799 40.1463C15.4999 44.1997 19.4199 42.9997 20.9399 42.3597C21.1799 40.6263 21.8733 39.453 22.6199 38.7863C16.6999 38.1197 10.4866 35.8263 10.4866 25.6663C10.4866 22.7063 11.4999 20.333 13.2333 18.4397C12.9666 17.773 12.0333 14.9997 13.4999 11.3997C13.4999 11.3997 15.7399 10.6797 20.8333 14.1197C22.9399 13.533 25.2333 13.2397 27.4999 13.2397C29.7666 13.2397 32.0599 13.533 34.1666 14.1197C39.2599 10.6797 41.4999 11.3997 41.4999 11.3997C42.9666 14.9997 42.0333 17.773 41.7666 18.4397C43.4999 20.333 44.5132 22.7063 44.5132 25.6663C44.5132 35.853 38.2733 38.093 32.3266 38.7597C33.2866 39.5863 34.1666 41.213 34.1666 43.693C34.1666 47.2663 34.1666 50.1463 34.1666 50.9997C34.1666 51.7197 34.5933 52.573 35.9533 52.333C46.5399 48.7597 54.1666 38.7863 54.1666 26.9997C54.1666 23.4978 53.4768 20.0301 52.1367 16.7948C50.7966 13.5594 48.8323 10.6197 46.3561 8.14349C43.8799 5.66726 40.9402 3.70301 37.7048 2.36289C34.4695 1.02276 31.0018 0.333008 27.4999 0.333008Z" fill="white"/>
</svg>
