<svg width="55" height="53" viewBox="0 0 55 53" fill="none" xmlns="http://www.w3.org/2000/svg">
<path d="M27.4997 0.333008C23.9978 0.333008 20.5301 1.02276 17.2948 2.36289C14.0594 3.70301 11.1197 5.66726 8.64349 8.14349C3.64252 13.1445 0.833008 19.9272 0.833008 26.9997C0.833008 38.7863 8.48634 48.7863 19.073 52.333C20.4063 52.5463 20.833 51.7197 20.833 50.9997C20.833 50.3863 20.833 48.7063 20.833 46.493C13.4463 48.093 11.873 42.9197 11.873 42.9197C10.6463 39.8263 8.91301 38.9997 8.91301 38.9997C6.48634 37.3463 9.09967 37.3997 9.09967 37.3997C11.7663 37.5863 13.1797 40.1463 13.1797 40.1463C15.4997 44.1997 19.4197 42.9997 20.9397 42.3597C21.1797 40.6263 21.873 39.453 22.6197 38.7863C16.6997 38.1197 10.4863 35.8263 10.4863 25.6663C10.4863 22.7063 11.4997 20.333 13.233 18.4397C12.9663 17.773 12.033 14.9997 13.4997 11.3997C13.4997 11.3997 15.7397 10.6797 20.833 14.1197C22.9397 13.533 25.233 13.2397 27.4997 13.2397C29.7663 13.2397 32.0597 13.533 34.1663 14.1197C39.2597 10.6797 41.4997 11.3997 41.4997 11.3997C42.9663 14.9997 42.033 17.773 41.7663 18.4397C43.4997 20.333 44.513 22.7063 44.513 25.6663C44.513 35.853 38.273 38.093 32.3263 38.7597C33.2863 39.5863 34.1663 41.213 34.1663 43.693C34.1663 47.2663 34.1663 50.1463 34.1663 50.9997C34.1663 51.7197 34.593 52.573 35.953 52.333C46.5397 48.7597 54.1663 38.7863 54.1663 26.9997C54.1663 23.4978 53.4766 20.0301 52.1365 16.7948C50.7963 13.5594 48.8321 10.6197 46.3559 8.14349C43.8796 5.66726 40.9399 3.70301 37.7046 2.36289C34.4692 1.02276 31.0016 0.333008 27.4997 0.333008Z" fill="white"/>
</svg>
