<svg width="55" height="44" viewBox="0 0 55 44" fill="none" xmlns="http://www.w3.org/2000/svg">
<path d="M20.833 0.666504C9.79301 0.666504 0.833008 7.83984 0.833008 16.6665C0.833008 21.7065 3.71301 26.1598 8.24634 29.0932L6.16634 35.3332L12.833 31.3332C15.2063 32.1598 17.8197 32.6665 20.593 32.6665C19.8997 30.9865 19.4997 29.1998 19.4997 27.3332C19.4997 18.5065 27.8463 11.3332 38.1663 11.3332C38.673 11.3332 39.1797 11.3332 39.6597 11.4132C36.9397 5.17317 29.5797 0.666504 20.833 0.666504ZM12.833 7.33317C13.5403 7.33317 14.2185 7.61412 14.7186 8.11422C15.2187 8.61432 15.4997 9.29259 15.4997 9.99984C15.4997 10.7071 15.2187 11.3854 14.7186 11.8855C14.2185 12.3856 13.5403 12.6665 12.833 12.6665C12.1258 12.6665 11.4475 12.3856 10.9474 11.8855C10.4473 11.3854 10.1663 10.7071 10.1663 9.99984C10.1663 9.29259 10.4473 8.61432 10.9474 8.11422C11.4475 7.61412 12.1258 7.33317 12.833 7.33317ZM26.1663 7.33317C26.8736 7.33317 27.5519 7.61412 28.052 8.11422C28.5521 8.61432 28.833 9.29259 28.833 9.99984C28.833 10.7071 28.5521 11.3854 28.052 11.8855C27.5519 12.3856 26.8736 12.6665 26.1663 12.6665C25.4591 12.6665 24.7808 12.3856 24.2807 11.8855C23.7806 11.3854 23.4997 10.7071 23.4997 9.99984C23.4997 9.29259 23.7806 8.61432 24.2807 8.11422C24.7808 7.61412 25.4591 7.33317 26.1663 7.33317ZM38.1663 13.9998C29.3397 13.9998 22.1663 19.9732 22.1663 27.3332C22.1663 34.6932 29.3397 40.6665 38.1663 40.6665C39.953 40.6665 41.6597 40.4532 43.2597 39.9998L48.833 43.3332L47.1797 38.3465C51.3663 35.9198 54.1663 31.8932 54.1663 27.3332C54.1663 19.9732 46.993 13.9998 38.1663 13.9998ZM32.833 20.6665C33.5403 20.6665 34.2185 20.9475 34.7186 21.4476C35.2187 21.9477 35.4997 22.6259 35.4997 23.3332C35.4997 24.0404 35.2187 24.7187 34.7186 25.2188C34.2185 25.7189 33.5403 25.9998 32.833 25.9998C32.1258 25.9998 31.4475 25.7189 30.9474 25.2188C30.4473 24.7187 30.1663 24.0404 30.1663 23.3332C30.1663 22.6259 30.4473 21.9477 30.9474 21.4476C31.4475 20.9475 32.1258 20.6665 32.833 20.6665ZM43.4997 20.6665C44.2069 20.6665 44.8852 20.9475 45.3853 21.4476C45.8854 21.9477 46.1663 22.6259 46.1663 23.3332C46.1663 24.0404 45.8854 24.7187 45.3853 25.2188C44.8852 25.7189 44.2069 25.9998 43.4997 25.9998C42.7924 25.9998 42.1142 25.7189 41.6141 25.2188C41.114 24.7187 40.833 24.0404 40.833 23.3332C40.833 22.6259 41.114 21.9477 41.6141 21.4476C42.1142 20.9475 42.7924 20.6665 43.4997 20.6665Z" fill="white"/>
</svg>
