<svg width="44" height="48" viewBox="0 0 44 48" fill="none" xmlns="http://www.w3.org/2000/svg">
<path d="M38.0003 22.6667V10.6667L32.3737 13.4933C32.5603 14.2933 32.667 15.12 32.667 16C32.667 21.8933 27.8937 26.6667 22.0003 26.6667C16.107 26.6667 11.3337 21.8933 11.3337 16C11.3337 15.12 11.4403 14.2933 11.627 13.4933L3.33366 9.33333L22.0003 0L40.667 9.33333V22.6667H38.0003ZM22.0003 18.6667L16.667 16C16.667 18.9333 19.067 21.3333 22.0003 21.3333C24.9337 21.3333 27.3337 18.9333 27.3337 16L22.0003 18.6667ZM29.3337 9.12L22.427 5.6L15.2537 9.25333L22.187 12.7733L29.3337 9.12ZM22.0003 29.3333C29.1203 29.3333 43.3337 32.88 43.3337 40V48H0.666992V40C0.666992 32.88 14.8803 29.3333 22.0003 29.3333ZM22.0003 34.4C14.0003 34.4 5.73366 38.2933 5.73366 40V42.9333H38.267V40C38.267 38.2933 29.9203 34.4 22.0003 34.4Z" fill="#FF28DC"/>
</svg>
