<svg width="55" height="53" viewBox="0 0 55 53" fill="none" xmlns="http://www.w3.org/2000/svg">
<path d="M27.4997 0.333496C23.9978 0.333496 20.5301 1.02325 17.2948 2.36338C14.0594 3.7035 11.1197 5.66775 8.64349 8.14398C3.64252 13.145 0.833008 19.9277 0.833008 27.0002C0.833008 38.7868 8.48634 48.7868 19.073 52.3335C20.4063 52.5468 20.833 51.7202 20.833 51.0002C20.833 50.3868 20.833 48.7068 20.833 46.4935C13.4463 48.0935 11.873 42.9202 11.873 42.9202C10.6463 39.8268 8.91301 39.0002 8.91301 39.0002C6.48634 37.3468 9.09967 37.4002 9.09967 37.4002C11.7663 37.5868 13.1797 40.1468 13.1797 40.1468C15.4997 44.2002 19.4197 43.0002 20.9397 42.3602C21.1797 40.6268 21.873 39.4535 22.6197 38.7868C16.6997 38.1202 10.4863 35.8268 10.4863 25.6668C10.4863 22.7068 11.4997 20.3335 13.233 18.4402C12.9663 17.7735 12.033 15.0002 13.4997 11.4002C13.4997 11.4002 15.7397 10.6802 20.833 14.1202C22.9397 13.5335 25.233 13.2402 27.4997 13.2402C29.7663 13.2402 32.0597 13.5335 34.1663 14.1202C39.2597 10.6802 41.4997 11.4002 41.4997 11.4002C42.9663 15.0002 42.033 17.7735 41.7663 18.4402C43.4997 20.3335 44.513 22.7068 44.513 25.6668C44.513 35.8535 38.273 38.0935 32.3263 38.7602C33.2863 39.5868 34.1663 41.2135 34.1663 43.6935C34.1663 47.2668 34.1663 50.1468 34.1663 51.0002C34.1663 51.7202 34.593 52.5735 35.953 52.3335C46.5397 48.7602 54.1663 38.7868 54.1663 27.0002C54.1663 23.4982 53.4766 20.0306 52.1365 16.7953C50.7963 13.5599 48.8321 10.6202 46.3559 8.14398C43.8796 5.66775 40.9399 3.7035 37.7046 2.36338C34.4692 1.02325 31.0016 0.333496 27.4997 0.333496Z" fill="white"/>
</svg>
