<svg width="55" height="44" viewBox="0 0 55 44" fill="none" xmlns="http://www.w3.org/2000/svg">
<path d="M20.8333 0.666992C9.79325 0.666992 0.833252 7.84033 0.833252 16.667C0.833252 21.707 3.71325 26.1603 8.24659 29.0937L6.16659 35.3337L12.8333 31.3337C15.2066 32.1603 17.8199 32.667 20.5933 32.667C19.8999 30.987 19.4999 29.2003 19.4999 27.3337C19.4999 18.507 27.8466 11.3337 38.1666 11.3337C38.6733 11.3337 39.1799 11.3337 39.6599 11.4137C36.9399 5.17366 29.5799 0.666992 20.8333 0.666992ZM12.8333 7.33366C13.5405 7.33366 14.2188 7.61461 14.7189 8.11471C15.219 8.6148 15.4999 9.29308 15.4999 10.0003C15.4999 10.7076 15.219 11.3858 14.7189 11.8859C14.2188 12.386 13.5405 12.667 12.8333 12.667C12.126 12.667 11.4477 12.386 10.9476 11.8859C10.4475 11.3858 10.1666 10.7076 10.1666 10.0003C10.1666 9.29308 10.4475 8.6148 10.9476 8.11471C11.4477 7.61461 12.126 7.33366 12.8333 7.33366ZM26.1666 7.33366C26.8738 7.33366 27.5521 7.61461 28.0522 8.11471C28.5523 8.6148 28.8333 9.29308 28.8333 10.0003C28.8333 10.7076 28.5523 11.3858 28.0522 11.8859C27.5521 12.386 26.8738 12.667 26.1666 12.667C25.4593 12.667 24.7811 12.386 24.281 11.8859C23.7809 11.3858 23.4999 10.7076 23.4999 10.0003C23.4999 9.29308 23.7809 8.6148 24.281 8.11471C24.7811 7.61461 25.4593 7.33366 26.1666 7.33366ZM38.1666 14.0003C29.3399 14.0003 22.1666 19.9737 22.1666 27.3337C22.1666 34.6937 29.3399 40.667 38.1666 40.667C39.9533 40.667 41.6599 40.4537 43.2599 40.0003L48.8333 43.3337L47.1799 38.347C51.3666 35.9203 54.1666 31.8937 54.1666 27.3337C54.1666 19.9737 46.9933 14.0003 38.1666 14.0003ZM32.8333 20.667C33.5405 20.667 34.2188 20.9479 34.7189 21.448C35.219 21.9481 35.4999 22.6264 35.4999 23.3337C35.4999 24.0409 35.219 24.7192 34.7189 25.2193C34.2188 25.7194 33.5405 26.0003 32.8333 26.0003C32.126 26.0003 31.4477 25.7194 30.9476 25.2193C30.4475 24.7192 30.1666 24.0409 30.1666 23.3337C30.1666 22.6264 30.4475 21.9481 30.9476 21.448C31.4477 20.9479 32.126 20.667 32.8333 20.667ZM43.4999 20.667C44.2072 20.667 44.8854 20.9479 45.3855 21.448C45.8856 21.9481 46.1666 22.6264 46.1666 23.3337C46.1666 24.0409 45.8856 24.7192 45.3855 25.2193C44.8854 25.7194 44.2072 26.0003 43.4999 26.0003C42.7927 26.0003 42.1144 25.7194 41.6143 25.2193C41.1142 24.7192 40.8333 24.0409 40.8333 23.3337C40.8333 22.6264 41.1142 21.9481 41.6143 21.448C42.1144 20.9479 42.7927 20.667 43.4999 20.667Z" fill="white"/>
</svg>
