<svg width="44" height="48" viewBox="0 0 44 48" fill="none" xmlns="http://www.w3.org/2000/svg">
<path d="M37.9998 22.6667V10.6667L32.3732 13.4933C32.5598 14.2933 32.6665 15.12 32.6665 16C32.6665 21.8933 27.8932 26.6667 21.9998 26.6667C16.1065 26.6667 11.3332 21.8933 11.3332 16C11.3332 15.12 11.4398 14.2933 11.6265 13.4933L3.33317 9.33333L21.9998 0L40.6665 9.33333V22.6667H37.9998ZM21.9998 18.6667L16.6665 16C16.6665 18.9333 19.0665 21.3333 21.9998 21.3333C24.9332 21.3333 27.3332 18.9333 27.3332 16L21.9998 18.6667ZM29.3332 9.12L22.4265 5.6L15.2532 9.25333L22.1865 12.7733L29.3332 9.12ZM21.9998 29.3333C29.1198 29.3333 43.3332 32.88 43.3332 40V48H0.666504V40C0.666504 32.88 14.8798 29.3333 21.9998 29.3333ZM21.9998 34.4C13.9998 34.4 5.73317 38.2933 5.73317 40V42.9333H38.2665V40C38.2665 38.2933 29.9198 34.4 21.9998 34.4Z" fill="#FF28DC"/>
</svg>
